# Blender v2.80 (sub 75) OBJ File: ''
# www.blender.org
mtllib Monster.mtl
o Cube
v 1.000000 1.000000 -1.256197
v 1.000000 -1.000000 -1.256197
v 1.000000 1.000000 1.256197
v 1.000000 -1.000000 1.256197
v -1.000000 -1.000000 0.000000
v -1.000000 1.000000 0.000000
vt 0.375000 0.625000
vt 0.625000 0.625000
vt 0.625000 0.750000
vt 0.375000 0.750000
vt 0.625000 0.000000
vt 0.625000 0.125000
vt 0.375000 0.250000
vt 0.625000 0.750000
vt 0.375000 1.000000
vt 0.375000 0.875000
vt 0.375000 0.500000
vt 0.625000 0.500000
vt 0.125000 0.500000
vt 0.375000 0.500000
vt 0.375000 0.750000
vt 0.125000 0.750000
vn -0.5319 0.0000 -0.8468
vn 0.0000 1.0000 0.0000
vn 0.0000 -1.0000 0.0000
vn -0.5319 0.0000 0.8468
vn 1.0000 0.0000 0.0000
usemtl Material
s off
f 5/1/1 6/2/1 1/3/1 2/4/1
f 1/5/2 6/6/2 3/7/2
f 2/8/3 4/9/3 5/10/3
f 4/11/4 3/12/4 6/2/4 5/1/4
f 2/13/5 1/14/5 3/15/5 4/16/5
